<svg width="1247" height="473" viewBox="0 0 1247 473" fill="none" xmlns="http://www.w3.org/2000/svg">
<g clip-path="url(#clip0_431_1365)">
<mask id="mask0_431_1365" style="mask-type:alpha" maskUnits="userSpaceOnUse" x="-23" y="-101" width="1281" height="800">
<rect x="-22.5918" y="-100.503" width="1280.01" height="799.259" fill="url(#paint0_linear_431_1365)"/>
</mask>
<g mask="url(#mask0_431_1365)">
<path d="M12.1768 -20.577V19.3859L46.5449 39.3674M46.5449 39.3674V-40.5585M46.5449 39.3674L81.3127 19.3859V-20.577L115.681 -40.5585V-80.5215" stroke="#EDEDED" stroke-width="0.740741"/>
<path d="M115.88 -40.5586L150.448 -20.5771L185.016 -40.5586L219.584 -20.5771L150.448 19.3859L81.3125 -20.5771" stroke="#EDEDED" stroke-width="0.740741"/>
<path d="M115.88 -40.5586L81.3125 -20.5771V19.3858L116.08 39.3673" stroke="#EDEDED" stroke-width="0.740741"/>
<path d="M116.08 39.3673V79.3303L150.448 99.3117M150.448 99.3117V19.3858M150.448 99.3117L185.216 79.3303V39.3673L219.584 19.3858V-20.5771" stroke="#EDEDED" stroke-width="0.740741"/>
<path d="M426.992 -20.577V19.3859L461.36 39.3674M461.36 39.3674V-40.5585M461.36 39.3674L496.128 19.3859V-20.577L530.496 -40.5585V-80.5215" stroke="#EDEDED" stroke-width="0.740741"/>
<path d="M530.695 -40.5586L565.263 -20.5771L599.831 -40.5586L634.399 -20.5771L565.263 19.3859L496.127 -20.5771" stroke="#EDEDED" stroke-width="0.740741"/>
<path d="M530.695 -40.5586L496.127 -20.5771V19.3858L530.895 39.3673" stroke="#EDEDED" stroke-width="0.740741"/>
<path d="M530.895 39.3673V79.3303L565.263 99.3117M565.263 99.3117V19.3858M565.263 99.3117L600.03 79.3303V39.3673L634.399 19.3858V-20.5771" stroke="#EDEDED" stroke-width="0.740741"/>
<path d="M219.585 -20.577V19.3859L253.953 39.3674M253.953 39.3674V-40.5585M253.953 39.3674L288.721 19.3859V-20.577L323.089 -40.5585V-80.5215" stroke="#EDEDED" stroke-width="0.740741"/>
<path d="M323.289 -40.5586L357.857 -20.5771L392.425 -40.5586L426.993 -20.5771L357.857 19.3859L288.721 -20.5771" stroke="#EDEDED" stroke-width="0.740741"/>
<path d="M323.289 -40.5586L288.721 -20.5771V19.3858L323.488 39.3673" stroke="#EDEDED" stroke-width="0.740741"/>
<path d="M323.488 39.3673V79.3303L357.856 99.3117M357.856 99.3117V19.3858M357.856 99.3117L392.624 79.3303V39.3673L426.992 19.3858V-20.5771" stroke="#EDEDED" stroke-width="0.740741"/>
<path d="M12.3766 19.3857L46.9445 39.3672L81.5125 19.3857L116.08 39.3672L46.9445 79.3302L-22.1914 39.3672" stroke="#EDEDED" stroke-width="0.740741"/>
<path d="M12.3766 19.3857L-22.1914 39.3672V79.3302L12.5764 99.3117" stroke="#EDEDED" stroke-width="0.740741"/>
<path d="M12.5762 99.3116V139.275L46.9443 159.256M46.9443 159.256V79.3302M46.9443 159.256L81.7121 139.275V99.3116L116.08 79.3302V39.3672" stroke="#EDEDED" stroke-width="0.740741"/>
<path d="M116.28 79.3301L150.848 99.3116L185.416 79.3301L219.984 99.3116L150.848 139.275L81.7119 99.3116" stroke="#EDEDED" stroke-width="0.740741"/>
<path d="M116.28 79.3301L81.7119 99.3116V139.275L116.48 159.256" stroke="#EDEDED" stroke-width="0.740741"/>
<path d="M116.479 159.256V199.219L150.848 219.2M150.848 219.2V139.274M150.848 219.2L185.615 199.219V159.256L219.984 139.274V99.3115" stroke="#EDEDED" stroke-width="0.740741"/>
<path d="M427.192 19.3857L461.76 39.3672L496.328 19.3857L530.896 39.3672L461.76 79.3302L392.624 39.3672" stroke="#EDEDED" stroke-width="0.740741"/>
<path d="M427.192 19.3857L392.624 39.3672V79.3302L427.392 99.3117" stroke="#EDEDED" stroke-width="0.740741"/>
<path d="M427.392 99.3116V139.275L461.76 159.256M461.76 159.256V79.3302M461.76 159.256L496.528 139.275V99.3116L530.896 79.3302V39.3672" stroke="#EDEDED" stroke-width="0.740741"/>
<path d="M531.095 79.3301L565.663 99.3116L600.231 79.3301L634.799 99.3116L565.663 139.275L496.527 99.3116" stroke="#EDEDED" stroke-width="0.740741"/>
<path d="M531.095 79.3301L496.527 99.3116V139.275L531.295 159.256" stroke="#EDEDED" stroke-width="0.740741"/>
<path d="M531.295 159.256V199.219L565.663 219.2M565.663 219.2V139.274M565.663 219.2L600.431 199.219V159.256L634.799 139.274V99.3115" stroke="#EDEDED" stroke-width="0.740741"/>
<path d="M219.784 19.3857L254.352 39.3672L288.92 19.3857L323.488 39.3672L254.352 79.3302L185.216 39.3672" stroke="#EDEDED" stroke-width="0.740741"/>
<path d="M219.784 19.3857L185.216 39.3672V79.3302L219.984 99.3117" stroke="#EDEDED" stroke-width="0.740741"/>
<path d="M219.983 99.3116V139.275L254.352 159.256M254.352 159.256V79.3302M254.352 159.256L289.119 139.275V99.3116L323.487 79.3302V39.3672" stroke="#EDEDED" stroke-width="0.740741"/>
<path d="M323.688 79.3301L358.256 99.3116L392.824 79.3301L427.392 99.3116L358.256 139.275L289.12 99.3116" stroke="#EDEDED" stroke-width="0.740741"/>
<path d="M323.688 79.3301L289.12 99.3116V139.275L323.888 159.256" stroke="#EDEDED" stroke-width="0.740741"/>
<path d="M323.888 159.256V199.219L358.256 219.2M358.256 219.2V139.274M358.256 219.2L393.024 199.219V159.256L427.392 139.274V99.3115" stroke="#EDEDED" stroke-width="0.740741"/>
<path d="M12.3766 139.274L46.9445 159.256L81.5125 139.274L116.08 159.256L46.9445 199.219L-22.1914 159.256" stroke="#EDEDED" stroke-width="0.740741"/>
<path d="M12.3766 139.274L-22.1914 159.256V199.219L12.5764 219.2" stroke="#EDEDED" stroke-width="0.740741"/>
<path d="M12.5762 219.2V259.163L46.9443 279.145M46.9443 279.145V199.219M46.9443 279.145L81.7121 259.163V219.2L116.08 199.219V159.256" stroke="#EDEDED" stroke-width="0.740741"/>
<path d="M116.28 199.219L150.848 219.2L185.416 199.219L219.984 219.2L150.848 259.163L81.7119 219.2" stroke="#EDEDED" stroke-width="0.740741"/>
<path d="M116.28 199.219L81.7119 219.2V259.163L116.48 279.145" stroke="#EDEDED" stroke-width="0.740741"/>
<path d="M116.479 279.145V319.108L150.848 339.089M150.848 339.089V259.163M150.848 339.089L185.615 319.108V279.145L219.984 259.163V219.2" stroke="#EDEDED" stroke-width="0.740741"/>
<path d="M427.192 139.274L461.76 159.256L496.328 139.274L530.896 159.256L461.76 199.219L392.624 159.256" stroke="#EDEDED" stroke-width="0.740741"/>
<path d="M427.192 139.274L392.624 159.256V199.219L427.392 219.2" stroke="#EDEDED" stroke-width="0.740741"/>
<path d="M427.392 219.2V259.163L461.76 279.145M461.76 279.145V199.219M461.76 279.145L496.528 259.163V219.2L530.896 199.219V159.256" stroke="#EDEDED" stroke-width="0.740741"/>
<path d="M531.095 199.219L565.663 219.2L600.231 199.219L634.799 219.2L565.663 259.163L496.527 219.2" stroke="#EDEDED" stroke-width="0.740741"/>
<path d="M531.095 199.219L496.527 219.2V259.163L531.295 279.145" stroke="#EDEDED" stroke-width="0.740741"/>
<path d="M531.295 279.145V319.108L565.663 339.089M565.663 339.089V259.163M565.663 339.089L600.431 319.108V279.145L634.799 259.163V219.2" stroke="#EDEDED" stroke-width="0.740741"/>
<path d="M219.784 139.274L254.352 159.256L288.92 139.274L323.488 159.256L254.352 199.219L185.216 159.256" stroke="#EDEDED" stroke-width="0.740741"/>
<path d="M219.784 139.274L185.216 159.256V199.219L219.984 219.2" stroke="#EDEDED" stroke-width="0.740741"/>
<path d="M219.983 219.2V259.163L254.352 279.145M254.352 279.145V199.219M254.352 279.145L289.119 259.163V219.2L323.487 199.219V159.256" stroke="#EDEDED" stroke-width="0.740741"/>
<path d="M323.688 199.219L358.256 219.2L392.824 199.219L427.392 219.2L358.256 259.163L289.12 219.2" stroke="#EDEDED" stroke-width="0.740741"/>
<path d="M323.688 199.219L289.12 219.2V259.163L323.888 279.145" stroke="#EDEDED" stroke-width="0.740741"/>
<path d="M323.888 279.145V319.108L358.256 339.089M358.256 339.089V259.163M358.256 339.089L393.024 319.108V279.145L427.392 259.163V219.2" stroke="#EDEDED" stroke-width="0.740741"/>
<path d="M12.3766 259.163L46.9445 279.145L81.5125 259.163L116.08 279.145L46.9445 319.108L-22.1914 279.145" stroke="#EDEDED" stroke-width="0.740741"/>
<path d="M12.3766 259.163L-22.1914 279.145V319.108L12.5764 339.089" stroke="#EDEDED" stroke-width="0.740741"/>
<path d="M12.5762 339.089V379.052L46.9443 399.033M46.9443 399.033V319.107M46.9443 399.033L81.7121 379.052V339.089L116.08 319.107V279.145" stroke="#EDEDED" stroke-width="0.740741"/>
<path d="M116.28 319.107L150.848 339.089L185.416 319.107L219.984 339.089L150.848 379.052L81.7119 339.089" stroke="#EDEDED" stroke-width="0.740741"/>
<path d="M116.28 319.107L81.7119 339.089V379.052L116.48 399.033" stroke="#EDEDED" stroke-width="0.740741"/>
<path d="M116.479 399.033V438.996L150.848 458.978M150.848 458.978V379.052M150.848 458.978L185.615 438.996V399.033L219.984 379.052V339.089" stroke="#EDEDED" stroke-width="0.740741"/>
<path d="M427.192 259.163L461.76 279.145L496.328 259.163L530.896 279.145L461.76 319.108L392.624 279.145" stroke="#EDEDED" stroke-width="0.740741"/>
<path d="M427.192 259.163L392.624 279.145V319.108L427.392 339.089" stroke="#EDEDED" stroke-width="0.740741"/>
<path d="M427.392 339.089V379.052L461.76 399.033M461.76 399.033V319.107M461.76 399.033L496.528 379.052V339.089L530.896 319.107V279.145" stroke="#EDEDED" stroke-width="0.740741"/>
<path d="M531.095 319.107L565.663 339.089L600.231 319.107L634.799 339.089L565.663 379.052L496.527 339.089" stroke="#EDEDED" stroke-width="0.740741"/>
<path d="M531.095 319.107L496.527 339.089V379.052L531.295 399.033" stroke="#EDEDED" stroke-width="0.740741"/>
<path d="M531.295 399.033V438.996L565.663 458.978M565.663 458.978V379.052M565.663 458.978L600.431 438.996V399.033L634.799 379.052V339.089" stroke="#EDEDED" stroke-width="0.740741"/>
<path d="M219.784 259.163L254.352 279.145L288.92 259.163L323.488 279.145L254.352 319.108L185.216 279.145" stroke="#EDEDED" stroke-width="0.740741"/>
<path d="M219.784 259.163L185.216 279.145V319.108L219.984 339.089" stroke="#EDEDED" stroke-width="0.740741"/>
<path d="M219.983 339.089V379.052L254.352 399.033M254.352 399.033V319.107M254.352 399.033L289.119 379.052V339.089L323.487 319.107V279.145" stroke="#EDEDED" stroke-width="0.740741"/>
<path d="M323.688 319.107L358.256 339.089L392.824 319.107L427.392 339.089L358.256 379.052L289.12 339.089" stroke="#EDEDED" stroke-width="0.740741"/>
<path d="M323.688 319.107L289.12 339.089V379.052L323.888 399.033" stroke="#EDEDED" stroke-width="0.740741"/>
<path d="M323.888 399.033V438.996L358.256 458.978M358.256 458.978V379.052M358.256 458.978L393.024 438.996V399.033L427.392 379.052V339.089" stroke="#EDEDED" stroke-width="0.740741"/>
<path d="M12.776 379.052L47.3439 399.033L81.9119 379.052L116.48 399.033L47.3439 438.996L-21.792 399.033" stroke="#EDEDED" stroke-width="0.740741"/>
<path d="M12.776 379.052L-21.792 399.033V438.996L12.9758 458.978" stroke="#EDEDED" stroke-width="0.740741"/>
<path d="M12.9756 458.978V498.941L47.3437 518.922M47.3437 518.922V438.996M47.3437 518.922L82.1115 498.941V458.978L116.48 438.996V399.033" stroke="#EDEDED" stroke-width="0.740741"/>
<path d="M116.679 438.996L151.247 458.978L185.815 438.996L220.383 458.978L151.247 498.941L82.1113 458.978" stroke="#EDEDED" stroke-width="0.740741"/>
<path d="M116.679 438.996L82.1113 458.978V498.941L116.879 518.922" stroke="#EDEDED" stroke-width="0.740741"/>
<path d="M116.879 518.922V558.885L151.247 578.866M151.247 578.866V498.941M151.247 578.866L186.015 558.885V518.922L220.383 498.941V458.978" stroke="#EDEDED" stroke-width="0.740741"/>
<path d="M427.591 379.052L462.159 399.033L496.727 379.052L531.295 399.033L462.159 438.996L393.023 399.033" stroke="#EDEDED" stroke-width="0.740741"/>
<path d="M427.591 379.052L393.023 399.033V438.996L427.791 458.978" stroke="#EDEDED" stroke-width="0.740741"/>
<path d="M427.791 458.978V498.941L462.159 518.922M462.159 518.922V438.996M462.159 518.922L496.927 498.941V458.978L531.295 438.996V399.033" stroke="#EDEDED" stroke-width="0.740741"/>
<path d="M531.495 438.996L566.063 458.978L600.631 438.996L635.199 458.978L566.063 498.941L496.927 458.978" stroke="#EDEDED" stroke-width="0.740741"/>
<path d="M531.495 438.996L496.927 458.978V498.941L531.695 518.922" stroke="#EDEDED" stroke-width="0.740741"/>
<path d="M531.694 518.922V558.885L566.062 578.866M566.062 578.866V498.941M566.062 578.866L600.83 558.885V518.922L635.198 498.941V458.978" stroke="#EDEDED" stroke-width="0.740741"/>
<path d="M220.184 379.052L254.752 399.033L289.32 379.052L323.888 399.033L254.752 438.996L185.616 399.033" stroke="#EDEDED" stroke-width="0.740741"/>
<path d="M220.184 379.052L185.616 399.033V438.996L220.384 458.978" stroke="#EDEDED" stroke-width="0.740741"/>
<path d="M220.384 458.978V498.941L254.752 518.922M254.752 518.922V438.996M254.752 518.922L289.52 498.941V458.978L323.888 438.996V399.033" stroke="#EDEDED" stroke-width="0.740741"/>
<path d="M324.087 438.996L358.655 458.978L393.223 438.996L427.791 458.978L358.655 498.941L289.52 458.978" stroke="#EDEDED" stroke-width="0.740741"/>
<path d="M324.087 438.996L289.52 458.978V498.941L324.287 518.922" stroke="#EDEDED" stroke-width="0.740741"/>
<path d="M324.287 518.922V558.885L358.655 578.866M358.655 578.866V498.941M358.655 578.866L393.423 558.885V518.922L427.791 498.941V458.978" stroke="#EDEDED" stroke-width="0.740741"/>
<path d="M634.398 -20.577V19.3859L668.767 39.3674M668.767 39.3674V-40.5585M668.767 39.3674L703.534 19.3859V-20.577L737.903 -40.5585V-80.5215" stroke="#EDEDED" stroke-width="0.740741"/>
<path d="M738.102 -40.5586L772.67 -20.5771L807.238 -40.5586L841.806 -20.5771L772.67 19.3859L703.534 -20.5771" stroke="#EDEDED" stroke-width="0.740741"/>
<path d="M738.102 -40.5586L703.534 -20.5771V19.3858L738.302 39.3673" stroke="#EDEDED" stroke-width="0.740741"/>
<path d="M738.302 39.3673V79.3303L772.67 99.3117M772.67 99.3117V19.3858M772.67 99.3117L807.438 79.3303V39.3673L841.806 19.3858V-20.5771" stroke="#EDEDED" stroke-width="0.740741"/>
<path d="M1049.21 -20.577V19.3859L1083.58 39.3674M1083.58 39.3674V-40.5585M1083.58 39.3674L1118.35 19.3859V-20.577L1152.72 -40.5585V-80.5215" stroke="#EDEDED" stroke-width="0.740741"/>
<path d="M1152.92 -40.5586L1187.49 -20.5771L1222.05 -40.5586L1256.62 -20.5771L1187.49 19.3859L1118.35 -20.5771" stroke="#EDEDED" stroke-width="0.740741"/>
<path d="M1152.92 -40.5586L1118.35 -20.5771V19.3858L1153.12 39.3673" stroke="#EDEDED" stroke-width="0.740741"/>
<path d="M1153.12 39.3673V79.3303L1187.49 99.3117M1187.49 99.3117V19.3858M1187.49 99.3117L1222.25 79.3303V39.3673L1256.62 19.3858V-20.5771" stroke="#EDEDED" stroke-width="0.740741"/>
<path d="M841.807 -20.577V19.3859L876.175 39.3674M876.175 39.3674V-40.5585M876.175 39.3674L910.943 19.3859V-20.577L945.311 -40.5585V-80.5215" stroke="#EDEDED" stroke-width="0.740741"/>
<path d="M945.51 -40.5586L980.078 -20.5771L1014.65 -40.5586L1049.21 -20.5771L980.078 19.3859L910.942 -20.5771" stroke="#EDEDED" stroke-width="0.740741"/>
<path d="M945.51 -40.5586L910.942 -20.5771V19.3858L945.71 39.3673" stroke="#EDEDED" stroke-width="0.740741"/>
<path d="M945.71 39.3673V79.3303L980.078 99.3117M980.078 99.3117V19.3858M980.078 99.3117L1014.85 79.3303V39.3673L1049.21 19.3858V-20.5771" stroke="#EDEDED" stroke-width="0.740741"/>
<path d="M634.598 19.3857L669.166 39.3672L703.734 19.3857L738.302 39.3672L669.166 79.3302L600.03 39.3672" stroke="#EDEDED" stroke-width="0.740741"/>
<path d="M634.598 19.3857L600.03 39.3672V79.3302L634.798 99.3117" stroke="#EDEDED" stroke-width="0.740741"/>
<path d="M634.798 99.3116V139.275L669.166 159.256M669.166 159.256V79.3302M669.166 159.256L703.934 139.275V99.3116L738.302 79.3302V39.3672" stroke="#EDEDED" stroke-width="0.740741"/>
<path d="M738.504 79.3301L773.071 99.3116L807.639 79.3301L842.207 99.3116L773.071 139.275L703.936 99.3116" stroke="#EDEDED" stroke-width="0.740741"/>
<path d="M738.504 79.3301L703.936 99.3116V139.275L738.703 159.256" stroke="#EDEDED" stroke-width="0.740741"/>
<path d="M738.703 159.256V199.219L773.071 219.2M773.071 219.2V139.274M773.071 219.2L807.839 199.219V159.256L842.207 139.274V99.3115" stroke="#EDEDED" stroke-width="0.740741"/>
<path d="M1049.41 19.3857L1083.98 39.3672L1118.55 19.3857L1153.12 39.3672L1083.98 79.3302L1014.85 39.3672" stroke="#EDEDED" stroke-width="0.740741"/>
<path d="M1049.41 19.3857L1014.85 39.3672V79.3302L1049.61 99.3117" stroke="#EDEDED" stroke-width="0.740741"/>
<path d="M1049.61 99.3116V139.275L1083.98 159.256M1083.98 159.256V79.3302M1083.98 159.256L1118.75 139.275V99.3116L1153.12 79.3302V39.3672" stroke="#EDEDED" stroke-width="0.740741"/>
<path d="M1153.32 79.3301L1187.88 99.3116L1222.45 79.3301L1257.02 99.3116L1187.88 139.275L1118.75 99.3116" stroke="#EDEDED" stroke-width="0.740741"/>
<path d="M1153.32 79.3301L1118.75 99.3116V139.275L1153.52 159.256" stroke="#EDEDED" stroke-width="0.740741"/>
<path d="M1153.52 159.256V199.219L1187.88 219.2M1187.88 219.2V139.274M1187.88 219.2L1222.65 199.219V159.256L1257.02 139.274V99.3115" stroke="#EDEDED" stroke-width="0.740741"/>
<path d="M842.007 19.3857L876.575 39.3672L911.143 19.3857L945.711 39.3672L876.575 79.3302L807.439 39.3672" stroke="#EDEDED" stroke-width="0.740741"/>
<path d="M842.007 19.3857L807.439 39.3672V79.3302L842.207 99.3117" stroke="#EDEDED" stroke-width="0.740741"/>
<path d="M842.207 99.3116V139.275L876.575 159.256M876.575 159.256V79.3302M876.575 159.256L911.343 139.275V99.3116L945.711 79.3302V39.3672" stroke="#EDEDED" stroke-width="0.740741"/>
<path d="M945.911 79.3301L980.479 99.3116L1015.05 79.3301L1049.61 99.3116L980.479 139.275L911.343 99.3116" stroke="#EDEDED" stroke-width="0.740741"/>
<path d="M945.911 79.3301L911.343 99.3116V139.275L946.111 159.256" stroke="#EDEDED" stroke-width="0.740741"/>
<path d="M946.11 159.256V199.219L980.478 219.2M980.478 219.2V139.274M980.478 219.2L1015.25 199.219V159.256L1049.61 139.274V99.3115" stroke="#EDEDED" stroke-width="0.740741"/>
<path d="M634.598 139.275L669.166 159.257L703.734 139.275L738.302 159.257L669.166 199.22L600.03 159.257" stroke="#EDEDED" stroke-width="0.740741"/>
<path d="M634.598 139.275L600.03 159.257V199.22L634.798 219.201" stroke="#EDEDED" stroke-width="0.740741"/>
<path d="M634.798 219.2V259.163L669.166 279.145M669.166 279.145V199.219M669.166 279.145L703.934 259.163V219.2L738.302 199.219V159.256" stroke="#EDEDED" stroke-width="0.740741"/>
<path d="M738.504 199.22L773.071 219.201L807.639 199.22L842.207 219.201L773.071 259.164L703.936 219.201" stroke="#EDEDED" stroke-width="0.740741"/>
<path d="M738.504 199.22L703.936 219.201V259.164L738.703 279.146" stroke="#EDEDED" stroke-width="0.740741"/>
<path d="M738.703 279.146V319.109L773.071 339.09M773.071 339.09V259.164M773.071 339.09L807.839 319.109V279.146L842.207 259.164V219.201" stroke="#EDEDED" stroke-width="0.740741"/>
<path d="M1049.41 139.275L1083.98 159.257L1118.55 139.275L1153.12 159.257L1083.98 199.22L1014.85 159.257" stroke="#EDEDED" stroke-width="0.740741"/>
<path d="M1049.41 139.275L1014.85 159.257V199.22L1049.61 219.201" stroke="#EDEDED" stroke-width="0.740741"/>
<path d="M1049.61 219.2V259.163L1083.98 279.145M1083.98 279.145V199.219M1083.98 279.145L1118.75 259.163V219.2L1153.12 199.219V159.256" stroke="#EDEDED" stroke-width="0.740741"/>
<path d="M1153.32 199.22L1187.88 219.201L1222.45 199.22L1257.02 219.201L1187.88 259.164L1118.75 219.201" stroke="#EDEDED" stroke-width="0.740741"/>
<path d="M1153.32 199.22L1118.75 219.201V259.164L1153.52 279.146" stroke="#EDEDED" stroke-width="0.740741"/>
<path d="M1153.52 279.146V319.109L1187.88 339.09M1187.88 339.09V259.164M1187.88 339.09L1222.65 319.109V279.146L1257.02 259.164V219.201" stroke="#EDEDED" stroke-width="0.740741"/>
<path d="M842.007 139.275L876.575 159.257L911.143 139.275L945.711 159.257L876.575 199.22L807.439 159.257" stroke="#EDEDED" stroke-width="0.740741"/>
<path d="M842.007 139.275L807.439 159.257V199.22L842.207 219.201" stroke="#EDEDED" stroke-width="0.740741"/>
<path d="M842.207 219.201V259.164L876.575 279.146M876.575 279.146V199.22M876.575 279.146L911.343 259.164V219.201L945.711 199.22V159.257" stroke="#EDEDED" stroke-width="0.740741"/>
<path d="M945.911 199.22L980.479 219.201L1015.05 199.22L1049.61 219.201L980.479 259.164L911.343 219.201" stroke="#EDEDED" stroke-width="0.740741"/>
<path d="M945.911 199.22L911.343 219.201V259.164L946.111 279.146" stroke="#EDEDED" stroke-width="0.740741"/>
<path d="M946.11 279.146V319.109L980.478 339.09M980.478 339.09V259.164M980.478 339.09L1015.25 319.109V279.146L1049.61 259.164V219.201" stroke="#EDEDED" stroke-width="0.740741"/>
<path d="M634.598 259.164L669.166 279.146L703.734 259.164L738.302 279.146L669.166 319.109L600.03 279.146" stroke="#EDEDED" stroke-width="0.740741"/>
<path d="M634.598 259.164L600.03 279.146V319.109L634.798 339.09" stroke="#EDEDED" stroke-width="0.740741"/>
<path d="M634.798 339.09V379.053L669.166 399.034M669.166 399.034V319.108M669.166 399.034L703.934 379.053V339.09L738.302 319.108V279.146" stroke="#EDEDED" stroke-width="0.740741"/>
<path d="M738.504 319.108L773.071 339.09L807.639 319.108L842.207 339.09L773.071 379.053L703.936 339.09" stroke="#EDEDED" stroke-width="0.740741"/>
<path d="M738.504 319.108L703.936 339.09V379.053L738.703 399.034" stroke="#EDEDED" stroke-width="0.740741"/>
<path d="M738.703 399.034V438.997L773.071 458.979M773.071 458.979V379.053M773.071 458.979L807.839 438.997V399.034L842.207 379.053V339.09" stroke="#EDEDED" stroke-width="0.740741"/>
<path d="M1049.41 259.164L1083.98 279.146L1118.55 259.164L1153.12 279.146L1083.98 319.109L1014.85 279.146" stroke="#EDEDED" stroke-width="0.740741"/>
<path d="M1049.41 259.164L1014.85 279.146V319.109L1049.61 339.09" stroke="#EDEDED" stroke-width="0.740741"/>
<path d="M1049.61 339.09V379.053L1083.98 399.034M1083.98 399.034V319.108M1083.98 399.034L1118.75 379.053V339.09L1153.12 319.108V279.146" stroke="#EDEDED" stroke-width="0.740741"/>
<path d="M1153.32 319.108L1187.88 339.09L1222.45 319.108L1257.02 339.09L1187.88 379.053L1118.75 339.09" stroke="#EDEDED" stroke-width="0.740741"/>
<path d="M1153.32 319.108L1118.75 339.09V379.053L1153.52 399.034" stroke="#EDEDED" stroke-width="0.740741"/>
<path d="M1153.52 399.034V438.997L1187.88 458.979M1187.88 458.979V379.053M1187.88 458.979L1222.65 438.997V399.034L1257.02 379.053V339.09" stroke="#EDEDED" stroke-width="0.740741"/>
<path d="M842.007 259.164L876.575 279.146L911.143 259.164L945.711 279.146L876.575 319.109L807.439 279.146" stroke="#EDEDED" stroke-width="0.740741"/>
<path d="M842.007 259.164L807.439 279.146V319.109L842.207 339.09" stroke="#EDEDED" stroke-width="0.740741"/>
<path d="M842.207 339.09V379.053L876.575 399.034M876.575 399.034V319.108M876.575 399.034L911.343 379.053V339.09L945.711 319.108V279.146" stroke="#EDEDED" stroke-width="0.740741"/>
<path d="M945.911 319.108L980.479 339.09L1015.05 319.108L1049.61 339.09L980.479 379.053L911.343 339.09" stroke="#EDEDED" stroke-width="0.740741"/>
<path d="M945.911 319.108L911.343 339.09V379.053L946.111 399.034" stroke="#EDEDED" stroke-width="0.740741"/>
<path d="M946.11 399.034V438.997L980.478 458.979M980.478 458.979V379.053M980.478 458.979L1015.25 438.997V399.034L1049.61 379.053V339.09" stroke="#EDEDED" stroke-width="0.740741"/>
<path d="M635 379.053L669.568 399.034L704.136 379.053L738.703 399.034L669.568 438.997L600.432 399.034" stroke="#EDEDED" stroke-width="0.740741"/>
<path d="M635 379.053L600.432 399.034V438.997L635.199 458.979" stroke="#EDEDED" stroke-width="0.740741"/>
<path d="M635.199 458.979V498.942L669.567 518.923M669.567 518.923V438.997M669.567 518.923L704.335 498.942V458.979L738.703 438.997V399.034" stroke="#EDEDED" stroke-width="0.740741"/>
<path d="M738.903 438.997L773.471 458.979L808.039 438.997L842.607 458.979L773.471 498.942L704.335 458.979" stroke="#EDEDED" stroke-width="0.740741"/>
<path d="M738.903 438.997L704.335 458.979V498.942L739.103 518.923" stroke="#EDEDED" stroke-width="0.740741"/>
<path d="M739.103 518.923V558.886L773.471 578.867M773.471 578.867V498.941M773.471 578.867L808.238 558.886V518.923L842.607 498.941V458.979" stroke="#EDEDED" stroke-width="0.740741"/>
<path d="M1049.82 379.053L1084.38 399.034L1118.95 379.053L1153.52 399.034L1084.38 438.997L1015.25 399.034" stroke="#EDEDED" stroke-width="0.740741"/>
<path d="M1049.82 379.053L1015.25 399.034V438.997L1050.01 458.979" stroke="#EDEDED" stroke-width="0.740741"/>
<path d="M1050.01 458.979V498.942L1084.38 518.923M1084.38 518.923V438.997M1084.38 518.923L1119.15 498.942V458.979L1153.52 438.997V399.034" stroke="#EDEDED" stroke-width="0.740741"/>
<path d="M1153.72 438.997L1188.29 458.979L1222.85 438.997L1257.42 458.979L1188.29 498.942L1119.15 458.979" stroke="#EDEDED" stroke-width="0.740741"/>
<path d="M1153.72 438.997L1119.15 458.979V498.942L1153.92 518.923" stroke="#EDEDED" stroke-width="0.740741"/>
<path d="M1153.92 518.922V558.885L1188.29 578.866M1188.29 578.866V498.941M1188.29 578.866L1223.05 558.885V518.922L1257.42 498.941V458.978" stroke="#EDEDED" stroke-width="0.740741"/>
<path d="M842.407 379.053L876.975 399.034L911.543 379.053L946.111 399.034L876.975 438.997L807.839 399.034" stroke="#EDEDED" stroke-width="0.740741"/>
<path d="M842.407 379.053L807.839 399.034V438.997L842.607 458.979" stroke="#EDEDED" stroke-width="0.740741"/>
<path d="M842.606 458.979V498.942L876.975 518.923M876.975 518.923V438.997M876.975 518.923L911.742 498.942V458.979L946.111 438.997V399.034" stroke="#EDEDED" stroke-width="0.740741"/>
<path d="M946.311 438.997L980.879 458.979L1015.45 438.997L1050.02 458.979L980.879 498.942L911.743 458.979" stroke="#EDEDED" stroke-width="0.740741"/>
<path d="M946.311 438.997L911.743 458.979V498.942L946.511 518.923" stroke="#EDEDED" stroke-width="0.740741"/>
<path d="M946.511 518.923V558.886L980.879 578.867M980.879 578.867V498.941M980.879 578.867L1015.65 558.886V518.923L1050.01 498.941V458.979" stroke="#EDEDED" stroke-width="0.740741"/>
</g>
</g>
<defs>
<linearGradient id="paint0_linear_431_1365" x1="617.415" y1="-100.503" x2="617.415" y2="698.756" gradientUnits="userSpaceOnUse">
<stop stop-color="white"/>
<stop offset="1" stop-color="#D9D9D9" stop-opacity="0"/>
</linearGradient>
<clipPath id="clip0_431_1365">
<rect width="1247" height="473" fill="white"/>
</clipPath>
</defs>
</svg>
